<svg width="11" height="8" viewBox="0 0 11 8" fill="none" xmlns="http://www.w3.org/2000/svg">
<path fill-rule="evenodd" clip-rule="evenodd" d="M0 0.72633C0 0.325189 0.307804 0 0.687499 0H10.3125C10.6922 0 11 0.325189 11 0.726329V7.27367C11 7.67481 10.6922 8 10.3125 8H0.687498C0.307803 8 0 7.67481 0 7.27367V0.72633ZM0.859374 1.44263V7.09209H10.1406V1.44263L6.36874 5.0777C5.87658 5.552 5.12342 5.55201 4.63126 5.0777L0.859374 1.44263ZM9.42031 0.907912H1.57969L5.21042 4.40694C5.37447 4.56504 5.62553 4.56504 5.78958 4.40694L9.42031 0.907912Z" fill="#F7A81E"/>
</svg>
